<svg id="Layer_1" enable-background="new 0 0 512 512" height="512" viewBox="0 0 512 512" width="512" xmlns="http://www.w3.org/2000/svg"><path d="m331 466v-90h-150v90h-30v30h165 15 30v-30z" fill="#465a61"/><path d="m256 376v120h105v-30h-30v-90z" fill="#3b4a51"/><path d="m512 406h-512v-60c0-16.569 13.431-30 30-30h452c16.569 0 30 13.431 30 30z" fill="#596c76"/><path d="m256 406h256v-60c0-16.569-13.431-30-30-30h-226z" fill="#465a61"/><path d="m512 346h-91v-240h-105c-24.814 0-45 20.186-45 45h-30c0-24.814-20.186-45-45-45h-105v240h-91v-330h512z" fill="#8cf2f2"/><path d="m271 151c0-24.814 20.186-45 45-45h105v240h91v-330h-256v135z" fill="#57d9d4"/><path d="m451 346h-390v-270h135c24.507 0 46.304 11.821 60 30.044 13.696-18.223 35.493-30.044 60-30.044h135z" fill="#e6ffff"/><path d="m121 136h90v30h-90z" fill="#596c76"/><path d="m121 196h90v30h-90z" fill="#596c76"/><path d="m121 256h90v30h-90z" fill="#596c76"/><path d="m451 346v-270h-135c-24.507 0-46.304 11.821-60 30.044v239.956z" fill="#d9f2ff"/><g fill="#465a61"><path d="m301 136h90v30h-90z"/><path d="m301 196h90v30h-90z"/><path d="m301 256h90v30h-90z"/></g></svg>